<svg id="Layer_1" data-name="Layer 1" xmlns="http://www.w3.org/2000/svg" viewBox="0 0 20 20" width="20" height="20"><path d="M21,10a1,1,0,0,1-1-1V4H15a1,1,0,0,1,0-2h6a1,1,0,0,1,1,1V9A1,1,0,0,1,21,10Z" transform="translate(-2 -2)"/><path d="M9,22H3a1,1,0,0,1-1-1V15a1,1,0,0,1,2,0v5H9a1,1,0,0,1,0,2Z" transform="translate(-2 -2)"/><path d="M14,11a1,1,0,0,1-.71-.29,1,1,0,0,1,0-1.42l7-7a1,1,0,1,1,1.42,1.42l-7,7A1,1,0,0,1,14,11Z" transform="translate(-2 -2)"/><path d="M3,22a1,1,0,0,1-.71-.29,1,1,0,0,1,0-1.42l7-7a1,1,0,0,1,1.42,1.42l-7,7A1,1,0,0,1,3,22Z" transform="translate(-2 -2)"/></svg>