<svg xmlns="http://www.w3.org/2000/svg" width="34" height="37" viewBox="0 0 34 37" fill="none"><path d="M26.0825 8.5832C25.8393 8.5832 25.6061 8.4866 25.4342 8.31465C25.2622 8.1427 25.1656 7.90949 25.1656 7.66631C25.1656 7.42314 25.2622 7.18992 25.4342 7.01797C25.6061 6.84602 25.8393 6.74942 26.0825 6.74942C26.3257 6.74942 26.5589 6.84602 26.7308 7.01797C26.9028 7.18992 26.9994 7.42314 26.9994 7.66631C26.9994 7.90949 26.9028 8.1427 26.7308 8.31465C26.5589 8.4866 26.3257 8.5832 26.0825 8.5832Z" fill="#45220E"></path><path fill-rule="evenodd" clip-rule="evenodd" d="M25.0867 1.24808C23.9314 0.0927939 21.9564 0.91066 21.9564 2.54456V3.99875H20.5022C18.8683 3.99875 18.0505 5.97373 19.2057 7.12901L20.8497 8.773C20.8608 8.78425 20.8721 8.79526 20.8837 8.806L17.7149 14.1671C17.3399 14.8016 16.7824 15.3085 16.1151 15.6215C15.4478 15.9345 14.7017 16.0393 13.974 15.922L2.43949 14.0635C0.944958 13.8223 -0.0727921 15.5387 0.855103 16.7353C1.74449 17.8823 2.19285 19.3484 2.51651 20.953C3.72497 26.9393 8.79537 31.5531 15.0797 32.3123V34.2561H12.7875V36.0899H21.498V34.2561H16.9135V32.4224C21.8776 32.4224 26.275 30.032 28.9312 26.3635C31.0621 23.4203 30.7155 19.6381 29.8536 16.4914L29.3997 14.8364C29.1689 13.9942 29.1124 13.1137 29.2338 12.2489L29.2915 12.2508H31.6626C33.2965 12.2508 34.1144 10.2758 32.9591 9.1205L25.0867 1.24808ZM20.5022 5.83253L21.8464 7.17669L22.5157 6.04616C22.6011 5.90156 22.6951 5.76225 22.7972 5.62898C22.5451 5.75918 22.2599 5.83253 21.9564 5.83253H20.5022ZM23.7902 3.99875C23.7902 4.30499 23.715 4.59473 23.5821 4.84779C24.0935 4.45923 24.6878 4.19408 25.3187 4.07302L23.7902 2.54456V3.99875ZM31.6626 10.417L30.2002 8.95546C30.1635 9.14617 30.1122 9.33688 30.0461 9.5276L29.7399 10.417H31.6626ZM28.3123 8.92979C28.4995 8.38301 28.4773 7.78627 28.2501 7.25488C28.0229 6.72348 27.6069 6.29515 27.0823 6.05264C26.5577 5.81014 25.9619 5.77067 25.4099 5.94186C24.8579 6.11306 24.389 6.48277 24.0937 6.97956L19.2929 15.1005C18.7303 16.052 17.8941 16.8119 16.8934 17.2813C15.8926 17.7507 14.7737 17.9077 13.6824 17.7319L2.54401 15.9376C3.53609 17.3652 4.00095 19.0394 4.31361 20.5908C4.56226 21.8175 5.00125 22.9977 5.61468 24.0887C5.701 24.1435 5.77755 24.2123 5.84115 24.2923C7.57683 26.4745 10.1487 27.8379 13.0039 27.8379C18.1477 27.8379 22.4149 23.3781 22.4149 17.7521C22.4149 17.5089 22.5115 17.2757 22.6834 17.1038C22.8554 16.9318 23.0886 16.8352 23.3318 16.8352C23.5749 16.8352 23.8081 16.9318 23.9801 17.1038C24.152 17.2757 24.2486 17.5089 24.2486 17.7521C24.2486 24.2804 19.2681 29.6717 13.0039 29.6717C12.6371 29.6717 12.2759 29.6533 11.9183 29.6167C13.5046 30.2614 15.2012 30.5915 16.9135 30.5886C21.2807 30.5886 25.1289 28.488 27.4458 25.2889C29.0651 23.0527 28.9129 19.9957 28.0849 16.9764L27.6311 15.3205C27.1919 13.7185 27.2466 12.0213 27.7878 10.4509L28.3123 8.92979Z" fill="#45220E" stroke="#FCFCFA" stroke-width="0.4" stroke-linejoin="round"></path></svg>