<svg xmlns="http://www.w3.org/2000/svg" width="30" height="30" viewBox="0 0 30 30" fill="none"><path d="M8.00012 9.17067C4.72012 9.91334 2.13336 10.476 1.7427 11.7307C1.35336 12.984 2.4707 14.292 4.7067 16.9067L5.28536 17.5827C5.92003 18.3253 6.2387 18.6973 6.38136 19.156C6.52403 19.616 6.47603 20.112 6.38003 21.1027L6.29203 22.0053C5.9547 25.4947 5.78536 27.2387 6.8067 28.0133C7.82803 28.7893 9.36403 28.0813 12.4334 26.668L13.2294 26.3027C14.1014 25.9 14.5374 25.7 15 25.7C15.4627 25.7 15.8987 25.9 16.772 26.3027L17.5654 26.668C20.636 28.0813 22.172 28.788 23.192 28.0147C24.2147 27.2387 23.8375 23.4893 23.5001 20M25.0001 17C27.2361 14.3867 28.6467 12.9853 28.2574 11.7307C27.8667 10.476 26.2267 10.104 22.9467 9.36267L22.0987 9.17067C21.1667 8.96001 20.7014 8.85467 20.3267 8.57067C19.9534 8.28667 19.7134 7.85601 19.2334 6.99467L18.796 6.21067C17.1067 3.18134 16.2627 1.66667 15 1.66667C13.7374 1.66667 12.1895 3.96534 10.5001 6.99467" stroke="#45220E" stroke-width="1.8" stroke-linecap="round"></path></svg>